<?xml version="1.0" encoding="utf-8"?>
<!-- Generator: Adobe Illustrator 26.0.2, SVG Export Plug-In . SVG Version: 6.00 Build 0)  -->
<svg version="1.1" id="Layer_1" xmlns="http://www.w3.org/2000/svg" xmlns:xlink="http://www.w3.org/1999/xlink" x="0px" y="0px"
	 viewBox="0 0 792 792" style="enable-background:new 0 0 792 792;" xml:space="preserve">
<style type="text/css">
	.st0{fill:#E95151;}
	.st1{fill:#FFFFFF;}
</style>
<circle class="st0" cx="395.5" cy="396.5" r="395.5"/>
<path class="st1" d="M647.79,262.85l-161.31-43.26l-17.71-9.66c-13.47-11.56-32.36-14.19-48.52-6.64l-43.13,20.13l-143.5,92.73
	h-99.08c-5.96,0-10.78,4.83-10.78,10.78c0,5.96,4.83,10.78,10.78,10.78H240l146.92-95.07l42.46-19.81c8.67-4.05,18.83-2.5,25.9,3.95
	l15.91,8.72c1.4,1.8,3.34,3.2,5.71,3.84l2.51,0.67l100.48,55.08l3.71,111.56c0.09,2.71-1.17,5.27-3.38,6.85l-27.83,19.87
	c-2.65,1.9-5.93,2.39-9.02,1.32c-3.08-1.05-5.39-3.45-6.33-6.57l-33.86-112.88l-50.07,27.82c-5.21,2.89-7.08,9.46-4.19,14.66
	c2.89,5.2,9.46,7.09,14.66,4.19l26.63-14.79l3.19,10.65c-5.08,1.4-11.95,3.38-21.39,6.25c-33.63,10.22-36.24,12.83-38.35,14.93
	c-2.37,2.36-5.94,5.94-10.52,36.84c-0.5,3.4,0.06,6.84,1.45,9.93c-1.05,1.58-1.98,3.26-2.6,5.12c-9.6,28.84-7.1,41.74-4.43,47.7
	c-2.78,2.66-4.23,5.87-4.79,7.21l-8.81,21.15c-5.93,14.23-0.77,30.52,12.26,38.75l28.06,17.72l-110.48-16.76l-77.45-38.72H143.07
	c-5.96,0-10.78,4.83-10.78,10.78s4.83,10.78,10.78,10.78h108.24l75.95,37.98l163.65,24.67c4.12,1.24,8.35,1.85,12.56,1.85
	c9.3,0,18.5-2.98,26.13-8.69L552.62,568c12.35-9.25,17.19-25.8,11.77-40.25l-0.98-2.63c13.26-0.81,25.25-7.84,32.45-19.16
	l10.55-16.57c6.88-10.81,8.34-23.84,4.33-35.63c8.78-2.95,16.1-9.42,20.06-17.9l19.08-40.89c2.75-5.9,2.9-12.73,0.41-18.74
	c-2.48-6.01-7.41-10.74-13.52-12.98l-9.37-3.43l8.43-3.18c14.85-5.61,25.47-18.86,27.71-34.57l3.34-23.39
	C669.02,283.8,661.34,269.4,647.79,262.85z M449.44,394.39c8.13-3.56,35.25-11.8,50.21-15.94l12.3,41l-66.8-4.48
	C447.12,402.46,448.65,396.76,449.44,394.39z M539.68,550.75l-23.02,17.27c-5.46,4.1-12.51,5.32-19.07,3.49l-69.8-44.08
	c-4.1-2.59-5.73-7.73-3.86-12.21l7.12-17.11c0.77,0.32,1.59,0.62,2.46,0.93c5.45,1.9,12.14,4.14,19.43,6.57
	c20.34,6.78,62.67,20.87,68.77,27.1c-0.01-0.01-0.67-0.69-1.13-2.08l19.4-6.47l4.2,11.18C546.26,540.86,544.41,547.2,539.68,550.75z
	 M588.2,477.81l-10.55,16.57c-3.69,5.79-9.98,9.25-16.84,9.25h-11.69c-47.59-11.03-102.87-26.88-111.77-33.92
	c-0.91-2.41-1.52-11.89,5.52-32.24l88.86,16.75l0.21-1.09c1.44,0.76,2.92,1.45,4.48,1.99c3.31,1.14,6.75,1.69,10.17,1.69
	c6.5,0,12.94-2.01,18.35-5.87l14-10l9.53,15.84C592.4,463.32,592.3,471.38,588.2,477.81z M629.36,383.52c0.59,0.21,0.86,0.64,1,0.96
	c0.13,0.32,0.23,0.82-0.03,1.38l-19.08,40.89c-1.68,3.59-4.99,6.2-8.88,6.98l-18.48,3.7l8.88-6.34c8.1-5.78,12.73-15.17,12.4-25.12
	l-1.05-31.67L629.36,383.52z M642.18,319.03c-1.13,7.92-6.48,14.61-13.98,17.44l-25.03,9.45l-2.12-63.85l-34.37-18.75l72.51,19.36
	c4.57,2.59,7.1,7.68,6.34,12.95L642.18,319.03z"/>
</svg>
