<?xml version="1.0" encoding="utf-8"?>
<!-- Generator: Adobe Illustrator 26.0.2, SVG Export Plug-In . SVG Version: 6.00 Build 0)  -->
<svg version="1.1" xmlns="http://www.w3.org/2000/svg" xmlns:xlink="http://www.w3.org/1999/xlink" x="0px" y="0px"
	 viewBox="0 0 792 792" style="enable-background:new 0 0 792 792;" xml:space="preserve">
<style type="text/css">
	.st0{display:none;}
	.st1{display:inline;fill:#E95151;}
	.st2{display:inline;fill:#FFFFFF;}
	.st3{display:inline;}
	.st4{fill:#FFFFFF;}
	.st5{fill:#E95151;}
</style>
<g id="rock" class="st0">
	<circle class="st1" cx="395.5" cy="396.5" r="395.5"/>
	<path class="st2" d="M647.79,262.85l-161.31-43.26l-17.71-9.66c-13.47-11.56-32.36-14.19-48.52-6.64l-43.13,20.13l-143.5,92.73
		h-99.08c-5.96,0-10.78,4.83-10.78,10.78c0,5.96,4.83,10.78,10.78,10.78H240l146.92-95.07l42.46-19.81
		c8.67-4.05,18.83-2.5,25.9,3.95l15.91,8.72c1.4,1.8,3.34,3.2,5.71,3.84l2.51,0.67l100.48,55.08l3.71,111.56
		c0.09,2.71-1.17,5.27-3.38,6.85l-27.83,19.87c-2.65,1.9-5.93,2.39-9.02,1.32c-3.08-1.05-5.39-3.45-6.33-6.57l-33.86-112.88
		l-50.07,27.82c-5.21,2.89-7.08,9.46-4.19,14.66c2.89,5.2,9.46,7.09,14.66,4.19l26.63-14.79l3.19,10.65
		c-5.08,1.4-11.95,3.38-21.39,6.25c-33.63,10.22-36.24,12.83-38.35,14.93c-2.37,2.36-5.94,5.94-10.52,36.84
		c-0.5,3.4,0.06,6.84,1.45,9.93c-1.05,1.58-1.98,3.26-2.6,5.12c-9.6,28.84-7.1,41.74-4.43,47.7c-2.78,2.66-4.23,5.87-4.79,7.21
		l-8.81,21.15c-5.93,14.23-0.77,30.52,12.26,38.75l28.06,17.72l-110.48-16.76l-77.45-38.72H143.07c-5.96,0-10.78,4.83-10.78,10.78
		s4.83,10.78,10.78,10.78h108.24l75.95,37.98l163.65,24.67c4.12,1.24,8.35,1.85,12.56,1.85c9.3,0,18.5-2.98,26.13-8.69L552.62,568
		c12.35-9.25,17.19-25.8,11.77-40.25l-0.98-2.63c13.26-0.81,25.25-7.84,32.45-19.16l10.55-16.57c6.88-10.81,8.34-23.84,4.33-35.63
		c8.78-2.95,16.1-9.42,20.06-17.9l19.08-40.89c2.75-5.9,2.9-12.73,0.41-18.74c-2.48-6.01-7.41-10.74-13.52-12.98l-9.37-3.43
		l8.43-3.18c14.85-5.61,25.47-18.86,27.71-34.57l3.34-23.39C669.02,283.8,661.34,269.4,647.79,262.85z M449.44,394.39
		c8.13-3.56,35.25-11.8,50.21-15.94l12.3,41l-66.8-4.48C447.12,402.46,448.65,396.76,449.44,394.39z M539.68,550.75l-23.02,17.27
		c-5.46,4.1-12.51,5.32-19.07,3.49l-69.8-44.08c-4.1-2.59-5.73-7.73-3.86-12.21l7.12-17.11c0.77,0.32,1.59,0.62,2.46,0.93
		c5.45,1.9,12.14,4.14,19.43,6.57c20.34,6.78,62.67,20.87,68.77,27.1c-0.01-0.01-0.67-0.69-1.13-2.08l19.4-6.47l4.2,11.18
		C546.26,540.86,544.41,547.2,539.68,550.75z M588.2,477.81l-10.55,16.57c-3.69,5.79-9.98,9.25-16.84,9.25h-11.69
		c-47.59-11.03-102.87-26.88-111.77-33.92c-0.91-2.41-1.52-11.89,5.52-32.24l88.86,16.75l0.21-1.09c1.44,0.76,2.92,1.45,4.48,1.99
		c3.31,1.14,6.75,1.69,10.17,1.69c6.5,0,12.94-2.01,18.35-5.87l14-10l9.53,15.84C592.4,463.32,592.3,471.38,588.2,477.81z
		 M629.36,383.52c0.59,0.21,0.86,0.64,1,0.96c0.13,0.32,0.23,0.82-0.03,1.38l-19.08,40.89c-1.68,3.59-4.99,6.2-8.88,6.98l-18.48,3.7
		l8.88-6.34c8.1-5.78,12.73-15.17,12.4-25.12l-1.05-31.67L629.36,383.52z M642.18,319.03c-1.13,7.92-6.48,14.61-13.98,17.44
		l-25.03,9.45l-2.12-63.85l-34.37-18.75l72.51,19.36c4.57,2.59,7.1,7.68,6.34,12.95L642.18,319.03z"/>
</g>
<g id="paper" class="st0">
	<circle class="st1" cx="396" cy="396" r="395"/>
	<g class="st3">
		<path class="st4" d="M543.62,621.93c-2.64,0-5.29-0.3-7.89-0.9l-1.13-0.34l-115.77-40.85c-1.78-0.62-3.61-1.09-5.45-1.4
			c-12.49,0.44-119.89,3.22-174.88-24.18c-12.83-1.03-95.59-0.32-146.53,0.41c-6.09,0.1-10.84-4.67-10.93-10.62
			c-0.08-5.95,4.67-10.84,10.62-10.93c148.73-2.12,152.15-0.36,155.17,1.21c51.63,26.77,165.6,22.61,166.73,22.55l0.95-0.04
			l0.94,0.13c3.57,0.49,7.11,1.35,10.54,2.55l115.14,40.63c3.35,0.65,6.88-0.01,9.76-1.85l20.02-12.74l5.18-10.27l-5.2,9.43
			l-95.18-52.52c-5.05-2.77-7.46-8.6-5.82-14.16c1.63-5.56,6.78-9.17,12.61-8.74l153.53,11.21c2.92,0.15,5.73-1.19,7.67-3.53
			l21.4-25.68l-175.12-21.89l0.62-21.43l184.15-12.17c6.1-0.17,21.56-6.12,24.36-11.85c-5.07-9.43-12.07-18.31-15.51-19.47
			l-0.71,0.15l-199.88-4.97c-5.94-0.16-10.8-4.73-11.33-10.63s3.46-11.26,9.26-12.45l165.64-34l-23.37-21.42
			c-3.74-3.42-8.79-5.09-13.81-4.64l-209.23,19.79c-8.1,1.08-16.1-3.12-20.03-10.71c-3.93-7.6-2.71-16.57,3.1-22.84l75.89-81.97
			c2.22-2.39,2.9-5.78,1.8-8.85l-6.14-17.06c-1.62-2.77-4.31-3.2-5.43-3.25c-1.23-0.04-4.12,0.14-6,3.14l-1.74,2.12l-33.32,31.46
			l-108.64,54.33c-3.17,1.58-6.04,3.65-8.55,6.16l-83.32,83.32H81.68c-5.95,0-10.77-4.82-10.77-10.77c0-5.95,4.82-10.77,10.77-10.77
			h117.21l77-77c4.14-4.15,8.91-7.58,14.15-10.2l105.8-52.9l30.12-28.44c5.58-7.98,14.64-12.51,24.44-11.96
			c10.34,0.49,19.28,6.31,23.92,15.57l0.5,1.17l6.4,17.79c3.84,10.67,1.44,22.46-6.27,30.78l-73.25,79.11l205.68-19.46
			c11.09-1.08,22.18,2.67,30.4,10.2l25.51,23.39c5.65,5.18,7.84,12.97,5.72,20.33c-2.12,7.36-8.11,12.79-15.64,14.18l-83.28,17.1
			l111.13,2.76c19.07-2.52,34.52,25.64,38.8,34.49l1.07,2.22v2.47c0,24.54-34.63,35.11-45.64,35.11l-70.93,4.69l67.47,8.44
			c6.97,0.87,12.9,5.47,15.48,12.01c2.58,6.54,1.4,13.95-3.1,19.35l-24.14,28.96c-6.24,7.48-15.82,11.69-25.5,11.23l-111.4-8.13
			l57.95,31.98c6.88,3.79,11.13,10.75,11.37,18.6c0.25,7.85-3.56,15.06-10.19,19.28l-20.02,12.74
			C556.82,620.06,550.24,621.93,543.62,621.93z M486.08,513.33l0.05,0.03C486.12,513.34,486.1,513.33,486.08,513.33z M649.25,342.04
			L649.25,342.04L649.25,342.04z M397.83,314.91c-0.02,0-0.04,0-0.06,0L397.83,314.91z"/>
	</g>
</g>
<g id="scissors" class="st0">
	<circle class="st1" cx="396" cy="396" r="395"/>
	<path class="st2" d="M725.34,481.69c-1.76-6.62-4.24-14.94-6.38-21.88c-3.76-12.16-13.86-21.17-26.36-23.51
		c-27.29-5.11-91.35-21.12-138.11-32.81c-19.7-4.92-36.69-9.17-47.34-11.71c-3-0.72-5.1-3.38-5.1-6.47v-7.11
		c0-2.52,1.33-4.9,3.48-6.21l169.24-103.62c5.86-3.59,9.8-9.54,10.82-16.34c1.01-6.76-1.02-13.58-5.55-18.69
		c-11.47-12.93-21.96-20.66-31.16-22.96c-5.26-1.34-17.64-4.4-199.11,76.08c-5.78,2.56-12.41,2.78-17.74,0.6l-60.58-17.03
		l-3.33-4.25c-4.4-5.62-11.01-9.14-18.14-9.65l-39.72-2.84c-7.38-0.53-14.65,1.05-21.11,4.57l-126.1,68.45H76.65
		c-5.95,0-10.77,4.82-10.77,10.77s4.82,10.77,10.77,10.77h91.86l130.91-71.06c2.85-1.55,6.07-2.24,9.3-2.01l39.72,2.84
		c1.07,0.08,2.05,0.6,2.71,1.44l64.12,81.92l19.96,113.12c0.13,0.75-0.18,1.28-0.46,1.59c-0.28,0.31-0.73,0.65-1.54,0.62
		l-25.74-1.84c-4.12-0.29-7.81-2.62-9.73-5.95l-16.42-30.61L369,383.07c-2.97-10.13-11.24-17.8-21.74-20.05l-47.66-9.38
		c-5.79-1.16-11.5,2.64-12.65,8.49c-1.15,5.83,2.65,11.5,8.49,12.65l32.9,6.48c-4.06,4.38-6.87,9.82-8.05,15.73l-4.52,22.56
		c-0.35,1.77-0.52,3.55-0.52,5.32c-1.05,0.66-2.03,1.42-2.89,2.28L296.3,443.2c-9.42,9.42-11.5,24.14-5.06,35.8l35.94,65.14
		l-140.39-43.45H84.4c-5.95,0-10.77,4.82-10.77,10.77s4.82,10.77,10.77,10.77h99.12l159.78,49.46c5.89,6.55,14.31,10.36,23.17,10.36
		c1.77,0,3.55-0.15,5.33-0.46l51.63-8.98c6.95-1.21,12.88-5.44,16.32-11.42c1.94,0.42,3.92,0.63,5.91,0.63
		c6.73,0,13.46-2.41,18.79-7.28l26.32-24.45c10.61-9.73,12.4-25.96,4.17-37.77l-2.09-2.57l0.59-1.18c0.69-1.6,1.21-2.75,7.22-1.46
		l198.19,23.09c1.44,0.27,2.88,0.4,4.31,0.4c6.22,0,12.19-2.52,16.61-7.15C725.32,497.62,727.4,489.49,725.34,481.69z M370.35,463
		l-31.97-34.04c-1.3-1.39-1.86-3.32-1.49-5.19l4.52-22.57c0.5-2.52,1.89-4.8,3.89-6.41l3.63-2.9l12.03,53.6L370.35,463z
		 M421.23,550.1c-0.24,0.72-0.74,1.14-1.49,1.27l-51.63,8.98c-4.05,0.75-8.08-1.24-10.05-4.82l-47.97-86.95
		c-1.83-3.31-1.24-7.49,1.43-10.16l12.88-12.88l42.76,45.52l53.66,57.13C421.33,548.75,421.47,549.39,421.23,550.1z M476.16,514.26
		l-26.31,24.45c-2.49,2.27-6.38,2.14-8.68-0.32l-4.62-4.91c-0.01-0.01-0.02-0.02-0.03-0.03l-36-38.33c1.77,0.42,3.59,0.72,5.44,0.85
		l25.74,1.84c0.58,0.04,1.14,0.06,1.71,0.06c6.63,0,12.88-2.77,17.36-7.74c2.89-3.2,4.78-7.03,5.59-11.11l21.08,25.9
		C479.32,507.87,478.81,511.82,476.16,514.26z M704.16,488.6c-0.58,0.6-1.2,0.47-1.39,0.42l-198.15-23.08
		c-13.35-2.7-21.35,1.39-26.01,6.32l-27.89-34.28l-15.18-86.04l-41.69-53.27l30.61,8.57c10.67,4.18,23.04,3.79,34.04-1.09
		c113.48-50.33,174.68-73.59,185.91-74.64c2.5,0.88,8.88,4.15,19.51,16.12c0.3,0.34,0.42,0.75,0.35,1.22
		c-0.05,0.34-0.22,0.82-0.76,1.15L494.28,353.62c-8.5,5.2-13.77,14.62-13.77,24.59v7.11c0,13.1,8.9,24.38,21.64,27.42
		c10.6,2.53,27.52,6.76,47.12,11.65c47.03,11.75,111.45,27.85,139.37,33.08c4.62,0.87,8.35,4.2,9.74,8.69
		c2.05,6.68,4.45,14.68,6.14,21.05C704.57,487.41,704.72,488.01,704.16,488.6z"/>
</g>
<g id="play_button" class="st0">
	<path class="st1" d="M308.87,341.83c-1.39-4-5.02-6.59-9.25-6.62l-118.22-6.75l-4.65-2.54c-4.85-4.19-11.67-5.14-17.5-2.42
		l-16.21,7.57l-53.06,34.34H53.08c-1.93,0-3.5,1.57-3.5,3.5s1.57,3.5,3.5,3.5h38.96l54.39-35.2l15.78-7.36
		c3.4-1.59,7.38-0.98,10.16,1.55l0.31,0.28l46.06,25.12l1.39,41.66c0.04,1.17-0.51,2.28-1.46,2.96l-10.32,7.37
		c-1.12,0.8-2.5,1-3.8,0.56c-1.3-0.44-2.27-1.45-2.66-2.76l-12.38-41.27l-18.02,10.01c-1.69,0.94-2.3,3.07-1.36,4.76
		c0.94,1.69,3.07,2.3,4.76,1.36l10.42-5.79l1.51,5.04c-2.53,0.68-5.64,1.6-8.41,2.45c-12.35,3.75-13.31,4.71-14.01,5.41
		c-0.83,0.83-2.09,2.09-3.76,13.38c-0.19,1.26,0.03,2.53,0.59,3.65c-0.44,0.61-0.79,1.28-1.04,2.02
		c-3.69,11.08-2.52,15.65-1.52,17.63c-1,0.82-1.56,1.92-1.91,2.77l-3.27,7.84c-2.1,5.05-0.27,10.83,4.35,13.76l12.34,7.8
		l-43.33-6.53l-28.69-14.34H56.24c-1.93,0-3.5,1.57-3.5,3.5s1.57,3.5,3.5,3.5H96.5l28.2,14.1l60.65,9.15
		c1.49,0.46,3.03,0.68,4.55,0.68c3.34,0,6.65-1.07,9.39-3.12l8.54-6.41c4.4-3.3,6.12-9.2,4.19-14.35l-0.61-1.62
		c5.03-0.08,9.62-2.65,12.33-6.9l3.91-6.15c2.56-4.03,3.03-8.92,1.38-13.27c3.34-0.97,6.15-3.35,7.64-6.53l7.08-15.16
		c0.96-2.06,1.02-4.45,0.15-6.55s-2.59-3.75-4.76-4.55l-12.37-4.39v-6.55c0-2.16,1.54-3.99,3.67-4.35
		c6.68-1.12,21.21-2.14,34.03-3.04c10.28-0.72,19.16-1.34,23.08-1.93c3.08-0.47,14.01-6.48,18.07-9.66
		C309.01,350.25,310.29,345.9,308.87,341.83z M169.45,393.56c2.86-1.31,13.79-4.63,19.37-6.16l4.91,16.36l-26.04-1.75
		C168.45,397.12,169.09,394.58,169.45,393.56z M203.63,452.31l-8.54,6.41c-2.15,1.62-4.94,2.12-7.52,1.39l-26-16.42
		c-1.73-1.09-2.41-3.26-1.63-5.15l2.83-6.8c0.4,0.17,0.85,0.35,1.35,0.53c2.02,0.71,4.5,1.53,7.21,2.43
		c7.65,2.55,23.56,7.85,25.7,10.18c0,0-0.18-0.2-0.31-0.58l6.64-2.21c-0.09-0.28-0.22-0.56-0.38-0.84c0.27,0.07,0.53,0.13,0.76,0.18
		l1.73,4.6C206.32,448.28,205.56,450.87,203.63,452.31z M236.76,389.42c0.41,0.15,0.59,0.46,0.66,0.63
		c0.07,0.17,0.16,0.52-0.02,0.92l-7.08,15.16c-0.69,1.48-2.05,2.55-3.65,2.87l-8.48,1.7l3.66,6.11c1.55,2.59,1.51,5.78-0.11,8.33
		l-3.91,6.15c-1.46,2.29-3.95,3.66-6.67,3.66h-4.4c-18.01-4.17-38.86-10.17-41.8-12.77c-0.57-1.12-0.53-5.19,1.85-12.35
		c0.1-0.29,0.39-0.46,0.7-0.41l32.96,6.21l0.08-0.43c0.55,0.3,1.12,0.57,1.72,0.78c1.18,0.4,2.4,0.6,3.61,0.6
		c2.31,0,4.6-0.71,6.52-2.08l10.32-7.37c2.87-2.05,4.51-5.37,4.39-8.89l-0.41-12.38L236.76,389.42z M301.29,347.4
		c-3.87,3.04-12.99,7.77-14.86,8.26c-3.69,0.55-12.8,1.19-22.45,1.86c-12.98,0.91-27.7,1.94-34.71,3.12c-1.2,0.2-2.33,0.6-3.36,1.13
		l-0.31-9.2l-29.84-16.27l103.56,5.91l0.11,0.01l0.11,0c0.01,0,0.01,0,0.02,0c1.89,0,2.55,1.47,2.7,1.92
		C302.42,344.59,302.83,346.2,301.29,347.4z"/>
	<path class="st1" d="M659.1,528H132.9C61.34,528,3.12,469.78,3.12,398.22v-4.44C3.12,322.22,61.34,264,132.9,264h526.2
		c71.56,0,129.78,58.22,129.78,129.78v4.44C788.88,469.78,730.66,528,659.1,528z M132.9,276.47c-64.68,0-117.31,52.62-117.31,117.31
		v4.44c0,64.68,52.62,117.31,117.31,117.31h526.2c64.68,0,117.31-52.62,117.31-117.31v-4.44c0-64.68-52.62-117.31-117.31-117.31
		H132.9z"/>
	<g class="st3">
		<path class="st5" d="M406.76,352.24c-5.35-2.65-11.36-3.98-18.01-3.98h-18.81h-5.5H341v103.02h28.94V415.1h18.81
			c6.65,0,12.66-1.32,18.01-3.98c5.35-2.65,9.6-6.49,12.73-11.5s4.71-10.99,4.71-17.94c0-7.04-1.57-13.04-4.71-18.01
			C416.35,358.7,412.11,354.89,406.76,352.24z M393.81,388.7c-1.16,1.88-2.68,3.28-4.56,4.2c-1.88,0.92-3.93,1.37-6.15,1.37h-13.16
			v-25.17h13.16c2.22,0,4.27,0.46,6.15,1.37c1.88,0.92,3.4,2.31,4.56,4.2c1.16,1.88,1.74,4.22,1.74,7.02S394.97,386.82,393.81,388.7
			z"/>
		<polygon class="st5" points="463.4,348.26 434.46,348.26 434.46,451.27 458.04,451.27 463.4,451.27 506.22,451.27 506.22,426.68 
			463.4,426.68 		"/>
		<path class="st5" d="M546.45,348.26l-39.21,103.02h29.51l5.85-17.36h36.33l5.71,17.36h30.09l-38.77-103.02H546.45z M550.22,411.34
			L561,379.38l10.51,31.96H550.22z"/>
		<polygon class="st5" points="703.14,348.26 670.58,348.26 653.37,380.26 636.15,348.26 602.87,348.26 638.76,410.09 
			638.76,451.27 667.69,451.27 667.69,408.89 		"/>
	</g>
</g>
<g id="rock_00000116203489783858884540000004579416366560471197_">
	<g>
		<circle class="st4" cx="396" cy="396" r="395.12"/>
		<path class="st5" d="M143.98,269.2l0.83-0.4l158.52-42.32l17.66-9.63c13.04-11.24,31.37-13.81,47.05-6.49l42.62,19.89
			l141.91,91.71h98.17c5.39,0,9.76,4.37,9.76,9.76c0,5.39-4.37,9.76-9.76,9.76H546.8l-145.01-93.83l-42.01-19.6
			c-8.9-4.15-19.33-2.57-26.59,4.05l-0.87,0.79l-15.21,8.29c-1.24,1.47-2.92,2.59-4.92,3.12l-1.59,0.42l-100.84,54.99l-3.69,110.75
			c-0.1,2.99,1.29,5.8,3.72,7.53l27.5,19.64c2.86,2.04,6.4,2.56,9.73,1.42c3.32-1.14,5.81-3.72,6.82-7.08l33.14-110.47l48.49,26.94
			c4.71,2.62,6.41,8.56,3.79,13.27c-2.62,4.71-8.56,6.41-13.27,3.79l-27.3-15.16l-3.8,12.68c19.56,5.17,54.36,15.53,59.58,20.74
			c2.26,2.26,5.67,5.66,10.14,35.89c0.5,3.37-0.08,6.79-1.55,9.8c1.11,1.59,2.08,3.31,2.72,5.23c9.7,29.17,6.81,41.57,4.16,47.04
			c2.54,2.2,4.04,5.05,4.97,7.28l8.71,20.9c5.69,13.65,0.74,29.28-11.76,37.18l-31.34,19.79l113.55-17.21l76.47-38.23h111.77
			c5.39,0,9.76,4.37,9.76,9.76s-4.37,9.76-9.76,9.76H535.15l-75.11,37.56L298.4,592.87c-4.01,1.22-8.12,1.82-12.22,1.82
			c-9,0-17.89-2.89-25.26-8.42l-22.76-17.06c-11.88-8.91-16.53-24.83-11.32-38.73l1.41-3.76c-13.3-0.41-25.41-7.29-32.59-18.57
			l-10.42-16.38c-6.82-10.72-8.13-23.69-3.88-35.3c-8.84-2.7-16.24-9.06-20.17-17.5l-18.86-40.41c-2.61-5.6-2.75-12.09-0.39-17.8
			c2.36-5.71,7.04-10.2,12.83-12.31l11.53-4.22l-10.58-4c-14.37-5.43-24.64-18.24-26.81-33.45l-3.3-23.11
			C123.55,289.35,130.94,275.49,143.98,269.2z M340.32,397.7c-7.82-3.55-36.12-12.13-50.96-16.2l-12.78,42.61l68.29-4.59
			C342.93,407.07,341.28,400.46,340.32,397.7z M249.87,553.6l22.75,17.06c5.62,4.21,12.87,5.52,19.6,3.64l69.23-43.72
			c4.43-2.8,6.18-8.35,4.17-13.18l-7.39-17.73c-0.99,0.41-2.05,0.84-3.21,1.24c-5.37,1.88-11.97,4.08-19.16,6.47
			c-20.3,6.75-62.53,20.82-68.35,27.01c0.01-0.01,0.53-0.58,0.91-1.71l-18.51-6.17c0.16-0.49,0.4-0.96,0.63-1.44
			c-0.3,0.07-0.61,0.14-0.91,0.22l-4.51,12.02C242.92,543.16,244.88,549.86,249.87,553.6z M201.7,481.29l10.42,16.38
			c3.81,5.98,10.31,9.56,17.41,9.56h11.66c47.68-11.05,102.93-26.93,111.08-33.86c1.07-2.33,1.93-11.68-5-32.51
			c-0.19-0.57-0.76-0.94-1.37-0.79l-87.82,16.56l-0.21-1.12c-1.45,0.78-2.95,1.5-4.54,2.04c-3.18,1.09-6.48,1.62-9.77,1.62
			c-6.24,0-12.42-1.92-17.61-5.63l-14.64-10.46l-9.9,16.5C197.36,466.32,197.47,474.64,201.7,481.29z M161.48,386.78
			c-0.89,0.32-1.31,0.96-1.51,1.44c-0.2,0.49-0.36,1.24,0.04,2.1l18.86,40.41c1.77,3.8,5.29,6.57,9.41,7.39l22.36,4.46l-12.18-8.7
			c-7.75-5.54-12.19-14.52-11.88-24.06l1.09-32.63L161.48,386.78z M144.92,300.91l3.3,23.11c1.17,8.16,6.69,15.04,14.4,17.96
			l25.91,9.78l2.13-63.84l40.13-21.89l-79.04,21.1C146.84,289.87,144.12,295.3,144.92,300.91z"/>
	</g>
</g>
<g id="scissors_00000031913417012133988790000015005497363658078140_" class="st0">
	<circle class="st2" cx="396" cy="396" r="393"/>
	<path class="st1" d="M437.63,286.51c0.68-0.86,1.69-1.4,2.78-1.48l37.12-2.65c3.09-0.24,6.16,0.44,8.89,1.92l122.23,66.36h85.74
		c5.36,0,9.7-4.34,9.7-9.7c0-5.36-4.34-9.7-9.7-9.7h-80.81l-117.9-64c-5.98-3.25-12.73-4.71-19.53-4.23l-37.12,2.65
		c-6.56,0.47-12.64,3.7-16.69,8.88l-3.18,4.06l-55.61,15.57l-1.08,0.37c-5.07,2.08-11.37,1.87-16.86-0.56
		c-169.45-75.16-180.92-72.27-185.81-71.07c-8.53,2.13-18.26,9.31-28.93,21.34c-4.16,4.69-6.02,10.95-5.1,17.16
		c0.93,6.25,4.55,11.72,9.94,15.02l158.13,96.81c2.12,1.3,3.43,3.64,3.43,6.12v6.64c0,3.06-2.07,5.69-5.04,6.39
		c-9.93,2.37-25.75,6.32-44.1,10.91c-43.75,10.93-103.67,25.91-129.2,30.69c-11.55,2.17-20.89,10.49-24.35,21.73
		c-2.59,8.4-4.59,15.27-5.96,20.43c-1.9,7.16,0.02,14.64,5.14,20c4.06,4.25,9.54,6.56,15.24,6.56c1.32,0,2.65-0.12,3.98-0.37
		l184.26-21.42l0.91-0.15c5.91-1.28,6.44-0.09,7.15,1.57l0.63,1.27l-1.63,2.01l-0.43,0.57c-7.6,10.88-5.95,25.86,3.79,34.78
		l24.68,22.93c4.87,4.47,11.06,6.68,17.24,6.68c1.93,0,3.85-0.27,5.74-0.71c3.13,5.63,8.62,9.65,15.1,10.77l48.25,8.39
		c1.65,0.28,3.3,0.43,4.93,0.43c8.18,0,15.94-3.55,21.36-9.62l149.52-46.28h92.67c5.36,0,9.7-4.34,9.7-9.7s-4.34-9.7-9.7-9.7h-95.61
		l-131.99,40.85l34.02-61.65c5.93-10.76,4.01-24.34-4.67-33.02l-15-15c-0.85-0.85-1.82-1.56-2.84-2.19c0.01-1.7-0.11-3.4-0.45-5.09
		l-4.22-21.09c-1.14-5.69-3.98-10.85-7.99-14.97l31.48-6.2c5.26-1.04,8.68-6.14,7.65-11.4c-1.04-5.26-6.13-8.68-11.4-7.65
		l-44.69,8.8c-9.52,2.04-17.14,9.1-19.88,18.44l-11.53,51.27L394.8,463.7c-1.98,3.45-5.53,5.69-9.5,5.97l-24.06,1.72
		c-0.89,0.09-1.41-0.34-1.73-0.69c-0.32-0.35-0.66-0.95-0.51-1.79l18.67-105.79L437.63,286.51z M294.56,461.7l-184.22,21.42
		l-0.91,0.15c-0.64,0.12-1.18-0.03-1.63-0.5c-0.45-0.46-0.59-1.02-0.42-1.64c1.3-4.91,3.23-11.53,5.74-19.68
		c1.34-4.33,4.93-7.54,9.38-8.37c26.1-4.89,86.35-19.95,130.33-30.94c18.26-4.56,34.01-8.5,43.89-10.86
		c11.75-2.8,19.95-13.19,19.95-25.27v-6.64c0-9.18-4.87-17.87-12.7-22.67l-158.13-96.81c-0.62-0.38-0.82-0.93-0.88-1.33
		c-0.06-0.37-0.03-0.92,0.42-1.43c10.07-11.35,16.13-14.39,18.46-15.2c10.3,0.88,67.51,22.6,173.89,69.78
		c10.19,4.52,21.65,4.88,31.55,1l29.68-8.31l-39.57,50.57l-14.19,80.39l-26.43,32.47C314.43,463.06,307.02,459.19,294.56,461.7z
		 M475.18,454.08c2.61,2.61,3.19,6.69,1.4,9.92l-44.83,81.24c-1.92,3.48-5.84,5.38-9.76,4.68l-48.25-8.39
		c-1.04-0.18-1.48-0.88-1.67-1.44c-0.18-0.55-0.25-1.37,0.46-2.14l90.35-96.18L475.18,454.08z M428.4,442.13l11.36-50.6l3.84,3.07
		c1.95,1.55,3.28,3.75,3.77,6.2l4.22,21.08c0.37,1.86-0.18,3.78-1.47,5.17l-31.76,33.81L428.4,442.13z M361.05,490.81
		c0.52,0,1.04-0.02,1.57-0.06l24.06-1.72c2.15-0.15,4.24-0.58,6.27-1.15l-34.55,36.77c0,0.01-0.01,0.01-0.01,0.02l-4.32,4.6
		c-2.29,2.44-6.16,2.57-8.57,0.37l-24.69-22.93c-2.57-2.36-3.06-6.25-1.19-9.17l20.21-24.83c0.65,4.04,2.44,7.84,5.27,10.98
		C349.22,488.27,354.96,490.81,361.05,490.81z"/>
</g>
</svg>
