<?xml version="1.0" encoding="utf-8"?>
<!-- Generator: Adobe Illustrator 26.0.2, SVG Export Plug-In . SVG Version: 6.00 Build 0)  -->
<svg version="1.1" xmlns="http://www.w3.org/2000/svg" xmlns:xlink="http://www.w3.org/1999/xlink" x="0px" y="0px"
	 viewBox="0 0 792 792" style="enable-background:new 0 0 792 792;" xml:space="preserve">
<style type="text/css">
	.st0{display:none;}
	.st1{display:inline;fill:#E95151;}
	.st2{display:inline;fill:#FFFFFF;}
	.st3{display:inline;}
	.st4{fill:#FFFFFF;}
	.st5{fill:#E95151;}
</style>
<g id="rock" class="st0">
	<circle class="st1" cx="395.5" cy="396.5" r="395.5"/>
	<path class="st2" d="M647.79,262.85l-161.31-43.26l-17.71-9.66c-13.47-11.56-32.36-14.19-48.52-6.64l-43.13,20.13l-143.5,92.73
		h-99.08c-5.96,0-10.78,4.83-10.78,10.78c0,5.96,4.83,10.78,10.78,10.78H240l146.92-95.07l42.46-19.81
		c8.67-4.05,18.83-2.5,25.9,3.95l15.91,8.72c1.4,1.8,3.34,3.2,5.71,3.84l2.51,0.67l100.48,55.08l3.71,111.56
		c0.09,2.71-1.17,5.27-3.38,6.85l-27.83,19.87c-2.65,1.9-5.93,2.39-9.02,1.32c-3.08-1.05-5.39-3.45-6.33-6.57l-33.86-112.88
		l-50.07,27.82c-5.21,2.89-7.08,9.46-4.19,14.66c2.89,5.2,9.46,7.09,14.66,4.19l26.63-14.79l3.19,10.65
		c-5.08,1.4-11.95,3.38-21.39,6.25c-33.63,10.22-36.24,12.83-38.35,14.93c-2.37,2.36-5.94,5.94-10.52,36.84
		c-0.5,3.4,0.06,6.84,1.45,9.93c-1.05,1.58-1.98,3.26-2.6,5.12c-9.6,28.84-7.1,41.74-4.43,47.7c-2.78,2.66-4.23,5.87-4.79,7.21
		l-8.81,21.15c-5.93,14.23-0.77,30.52,12.26,38.75l28.06,17.72l-110.48-16.76l-77.45-38.72H143.07c-5.96,0-10.78,4.83-10.78,10.78
		s4.83,10.78,10.78,10.78h108.24l75.95,37.98l163.65,24.67c4.12,1.24,8.35,1.85,12.56,1.85c9.3,0,18.5-2.98,26.13-8.69L552.62,568
		c12.35-9.25,17.19-25.8,11.77-40.25l-0.98-2.63c13.26-0.81,25.25-7.84,32.45-19.16l10.55-16.57c6.88-10.81,8.34-23.84,4.33-35.63
		c8.78-2.95,16.1-9.42,20.06-17.9l19.08-40.89c2.75-5.9,2.9-12.73,0.41-18.74c-2.48-6.01-7.41-10.74-13.52-12.98l-9.37-3.43
		l8.43-3.18c14.85-5.61,25.47-18.86,27.71-34.57l3.34-23.39C669.02,283.8,661.34,269.4,647.79,262.85z M449.44,394.39
		c8.13-3.56,35.25-11.8,50.21-15.94l12.3,41l-66.8-4.48C447.12,402.46,448.65,396.76,449.44,394.39z M539.68,550.75l-23.02,17.27
		c-5.46,4.1-12.51,5.32-19.07,3.49l-69.8-44.08c-4.1-2.59-5.73-7.73-3.86-12.21l7.12-17.11c0.77,0.32,1.59,0.62,2.46,0.93
		c5.45,1.9,12.14,4.14,19.43,6.57c20.34,6.78,62.67,20.87,68.77,27.1c-0.01-0.01-0.67-0.69-1.13-2.08l19.4-6.47l4.2,11.18
		C546.26,540.86,544.41,547.2,539.68,550.75z M588.2,477.81l-10.55,16.57c-3.69,5.79-9.98,9.25-16.84,9.25h-11.69
		c-47.59-11.03-102.87-26.88-111.77-33.92c-0.91-2.41-1.52-11.89,5.52-32.24l88.86,16.75l0.21-1.09c1.44,0.76,2.92,1.45,4.48,1.99
		c3.31,1.14,6.75,1.69,10.17,1.69c6.5,0,12.94-2.01,18.35-5.87l14-10l9.53,15.84C592.4,463.32,592.3,471.38,588.2,477.81z
		 M629.36,383.52c0.59,0.21,0.86,0.64,1,0.96c0.13,0.32,0.23,0.82-0.03,1.38l-19.08,40.89c-1.68,3.59-4.99,6.2-8.88,6.98l-18.48,3.7
		l8.88-6.34c8.1-5.78,12.73-15.17,12.4-25.12l-1.05-31.67L629.36,383.52z M642.18,319.03c-1.13,7.92-6.48,14.61-13.98,17.44
		l-25.03,9.45l-2.12-63.85l-34.37-18.75l72.51,19.36c4.57,2.59,7.1,7.68,6.34,12.95L642.18,319.03z"/>
</g>
<g id="paper" class="st0">
	<circle class="st1" cx="396" cy="396" r="395"/>
	<g class="st3">
		<path class="st4" d="M543.62,621.93c-2.64,0-5.29-0.3-7.89-0.9l-1.13-0.34l-115.77-40.85c-1.78-0.62-3.61-1.09-5.45-1.4
			c-12.49,0.44-119.89,3.22-174.88-24.18c-12.83-1.03-95.59-0.32-146.53,0.41c-6.09,0.1-10.84-4.67-10.93-10.62
			c-0.08-5.95,4.67-10.84,10.62-10.93c148.73-2.12,152.15-0.36,155.17,1.21c51.63,26.77,165.6,22.61,166.73,22.55l0.95-0.04
			l0.94,0.13c3.57,0.49,7.11,1.35,10.54,2.55l115.14,40.63c3.35,0.65,6.88-0.01,9.76-1.85l20.02-12.74l5.18-10.27l-5.2,9.43
			l-95.18-52.52c-5.05-2.77-7.46-8.6-5.82-14.16c1.63-5.56,6.78-9.17,12.61-8.74l153.53,11.21c2.92,0.15,5.73-1.19,7.67-3.53
			l21.4-25.68l-175.12-21.89l0.62-21.43l184.15-12.17c6.1-0.17,21.56-6.12,24.36-11.85c-5.07-9.43-12.07-18.31-15.51-19.47
			l-0.71,0.15l-199.88-4.97c-5.94-0.16-10.8-4.73-11.33-10.63s3.46-11.26,9.26-12.45l165.64-34l-23.37-21.42
			c-3.74-3.42-8.79-5.09-13.81-4.64l-209.23,19.79c-8.1,1.08-16.1-3.12-20.03-10.71c-3.93-7.6-2.71-16.57,3.1-22.84l75.89-81.97
			c2.22-2.39,2.9-5.78,1.8-8.85l-6.14-17.06c-1.62-2.77-4.31-3.2-5.43-3.25c-1.23-0.04-4.12,0.14-6,3.14l-1.74,2.12l-33.32,31.46
			l-108.64,54.33c-3.17,1.58-6.04,3.65-8.55,6.16l-83.32,83.32H81.68c-5.95,0-10.77-4.82-10.77-10.77c0-5.95,4.82-10.77,10.77-10.77
			h117.21l77-77c4.14-4.15,8.91-7.58,14.15-10.2l105.8-52.9l30.12-28.44c5.58-7.98,14.64-12.51,24.44-11.96
			c10.34,0.49,19.28,6.31,23.92,15.57l0.5,1.17l6.4,17.79c3.84,10.67,1.44,22.46-6.27,30.78l-73.25,79.11l205.68-19.46
			c11.09-1.08,22.18,2.67,30.4,10.2l25.51,23.39c5.65,5.18,7.84,12.97,5.72,20.33c-2.12,7.36-8.11,12.79-15.64,14.18l-83.28,17.1
			l111.13,2.76c19.07-2.52,34.52,25.64,38.8,34.49l1.07,2.22v2.47c0,24.54-34.63,35.11-45.64,35.11l-70.93,4.69l67.47,8.44
			c6.97,0.87,12.9,5.47,15.48,12.01c2.58,6.54,1.4,13.95-3.1,19.35l-24.14,28.96c-6.24,7.48-15.82,11.69-25.5,11.23l-111.4-8.13
			l57.95,31.98c6.88,3.79,11.13,10.75,11.37,18.6c0.25,7.85-3.56,15.06-10.19,19.28l-20.02,12.74
			C556.82,620.06,550.24,621.93,543.62,621.93z M486.08,513.33l0.05,0.03C486.12,513.34,486.1,513.33,486.08,513.33z M649.25,342.04
			L649.25,342.04L649.25,342.04z M397.83,314.91c-0.02,0-0.04,0-0.06,0L397.83,314.91z"/>
	</g>
</g>
<g id="scissors">
	<circle class="st5" cx="396" cy="396" r="395"/>
	<path class="st4" d="M725.34,481.69c-1.76-6.62-4.24-14.94-6.38-21.88c-3.76-12.16-13.86-21.17-26.36-23.51
		c-27.29-5.11-91.35-21.12-138.11-32.81c-19.7-4.92-36.69-9.17-47.34-11.71c-3-0.72-5.1-3.38-5.1-6.47v-7.11
		c0-2.52,1.33-4.9,3.48-6.21l169.24-103.62c5.86-3.59,9.8-9.54,10.82-16.34c1.01-6.76-1.02-13.58-5.55-18.69
		c-11.47-12.93-21.96-20.66-31.16-22.96c-5.26-1.34-17.64-4.4-199.11,76.08c-5.78,2.56-12.41,2.78-17.74,0.6l-60.58-17.03
		l-3.33-4.25c-4.4-5.62-11.01-9.14-18.14-9.65l-39.72-2.84c-7.38-0.53-14.65,1.05-21.11,4.57l-126.1,68.45H76.65
		c-5.95,0-10.77,4.82-10.77,10.77s4.82,10.77,10.77,10.77h91.86l130.91-71.06c2.85-1.55,6.07-2.24,9.3-2.01l39.72,2.84
		c1.07,0.08,2.05,0.6,2.71,1.44l64.12,81.92l19.96,113.12c0.13,0.75-0.18,1.28-0.46,1.59c-0.28,0.31-0.73,0.65-1.54,0.62
		l-25.74-1.84c-4.12-0.29-7.81-2.62-9.73-5.95l-16.42-30.61L369,383.07c-2.97-10.13-11.24-17.8-21.74-20.05l-47.66-9.38
		c-5.79-1.16-11.5,2.64-12.65,8.49c-1.15,5.83,2.65,11.5,8.49,12.65l32.9,6.48c-4.06,4.38-6.87,9.82-8.05,15.73l-4.52,22.56
		c-0.35,1.77-0.52,3.55-0.52,5.32c-1.05,0.66-2.03,1.42-2.89,2.28L296.3,443.2c-9.42,9.42-11.5,24.14-5.06,35.8l35.94,65.14
		l-140.39-43.45H84.4c-5.95,0-10.77,4.82-10.77,10.77s4.82,10.77,10.77,10.77h99.12l159.78,49.46c5.89,6.55,14.31,10.36,23.17,10.36
		c1.77,0,3.55-0.15,5.33-0.46l51.63-8.98c6.95-1.21,12.88-5.44,16.32-11.42c1.94,0.42,3.92,0.63,5.91,0.63
		c6.73,0,13.46-2.41,18.79-7.28l26.32-24.45c10.61-9.73,12.4-25.96,4.17-37.77l-2.09-2.57l0.59-1.18c0.69-1.6,1.21-2.75,7.22-1.46
		l198.19,23.09c1.44,0.27,2.88,0.4,4.31,0.4c6.22,0,12.19-2.52,16.61-7.15C725.32,497.62,727.4,489.49,725.34,481.69z M370.35,463
		l-31.97-34.04c-1.3-1.39-1.86-3.32-1.49-5.19l4.52-22.57c0.5-2.52,1.89-4.8,3.89-6.41l3.63-2.9l12.03,53.6L370.35,463z
		 M421.23,550.1c-0.24,0.72-0.74,1.14-1.49,1.27l-51.63,8.98c-4.05,0.75-8.08-1.24-10.05-4.82l-47.97-86.95
		c-1.83-3.31-1.24-7.49,1.43-10.16l12.88-12.88l42.76,45.52l53.66,57.13C421.33,548.75,421.47,549.39,421.23,550.1z M476.16,514.26
		l-26.31,24.45c-2.49,2.27-6.38,2.14-8.68-0.32l-4.62-4.91c-0.01-0.01-0.02-0.02-0.03-0.03l-36-38.33c1.77,0.42,3.59,0.72,5.44,0.85
		l25.74,1.84c0.58,0.04,1.14,0.06,1.71,0.06c6.63,0,12.88-2.77,17.36-7.74c2.89-3.2,4.78-7.03,5.59-11.11l21.08,25.9
		C479.32,507.87,478.81,511.82,476.16,514.26z M704.16,488.6c-0.58,0.6-1.2,0.47-1.39,0.42l-198.15-23.08
		c-13.35-2.7-21.35,1.39-26.01,6.32l-27.89-34.28l-15.18-86.04l-41.69-53.27l30.61,8.57c10.67,4.18,23.04,3.79,34.04-1.09
		c113.48-50.33,174.68-73.59,185.91-74.64c2.5,0.88,8.88,4.15,19.51,16.12c0.3,0.34,0.42,0.75,0.35,1.22
		c-0.05,0.34-0.22,0.82-0.76,1.15L494.28,353.62c-8.5,5.2-13.77,14.62-13.77,24.59v7.11c0,13.1,8.9,24.38,21.64,27.42
		c10.6,2.53,27.52,6.76,47.12,11.65c47.03,11.75,111.45,27.85,139.37,33.08c4.62,0.87,8.35,4.2,9.74,8.69
		c2.05,6.68,4.45,14.68,6.14,21.05C704.57,487.41,704.72,488.01,704.16,488.6z"/>
</g>
</svg>
